<mxfile host="app.diagrams.net" modified="2022-05-06T02:44:49.151Z" agent="5.0 (Windows NT 10.0; Win64; x64) AppleWebKit/537.36 (KHTML, like Gecko) Chrome/101.0.4951.54 Safari/537.36" etag="MMig6T7OEjFFNnol8ET2" version="18.0.1" type="github">
  <diagram id="TWMiBX6k0OFmh5aFQN6y" name="Page-1">
    <mxGraphModel dx="1209" dy="788" grid="1" gridSize="10" guides="1" tooltips="1" connect="1" arrows="1" fold="1" page="1" pageScale="1" pageWidth="827" pageHeight="1169" math="0" shadow="0">
      <root>
        <mxCell id="0" />
        <mxCell id="1" parent="0" />
        <mxCell id="lGWbNIHZL3bkTxc1tllj-1" value="&lt;span style=&quot;font-size: 27px;&quot;&gt;HaHa&lt;/span&gt;" style="rounded=0;whiteSpace=wrap;html=1;fillColor=#d5e8d4;strokeColor=#82b366;" vertex="1" parent="1">
          <mxGeometry x="310" y="250" width="250" height="150" as="geometry" />
        </mxCell>
      </root>
    </mxGraphModel>
  </diagram>
</mxfile>
